<svg width="60" height="60" viewBox="0 0 60 60" fill="none" xmlns="http://www.w3.org/2000/svg">
<rect width="60" height="60" rx="10" fill="#734BDF"/>
<g clip-path="url(#clip0_1_400)">
<g clip-path="url(#clip1_1_400)">
<g clip-path="url(#clip2_1_400)">
<mask id="mask0_1_400" style="mask-type:luminance" maskUnits="userSpaceOnUse" x="15" y="15" width="30" height="30">
<path d="M45 15H15V45H45V15Z" fill="white"/>
</mask>
<g mask="url(#mask0_1_400)">
<path d="M33.2143 25.7144C34.3978 25.7144 35.3571 24.755 35.3571 23.5716C35.3571 22.3881 34.3978 21.4287 33.2143 21.4287C32.0308 21.4287 31.0714 22.3881 31.0714 23.5716C31.0714 24.755 32.0308 25.7144 33.2143 25.7144Z" stroke="white" stroke-width="1.5" stroke-linecap="round" stroke-linejoin="round"/>
<path d="M24.6429 36.4287C25.2346 36.4287 25.7143 35.9491 25.7143 35.3573C25.7143 34.7656 25.2346 34.2859 24.6429 34.2859C24.0512 34.2859 23.5715 34.7656 23.5715 35.3573C23.5715 35.9491 24.0512 36.4287 24.6429 36.4287Z" stroke="white" stroke-width="1.5" stroke-linecap="round" stroke-linejoin="round"/>
<path d="M24.6429 28.9288C25.8263 28.9288 26.7857 27.9694 26.7857 26.7859C26.7857 25.6025 25.8263 24.6431 24.6429 24.6431C23.4594 24.6431 22.5 25.6025 22.5 26.7859C22.5 27.9694 23.4594 28.9288 24.6429 28.9288Z" stroke="white" stroke-width="1.5" stroke-linecap="round" stroke-linejoin="round"/>
<path d="M35.4 41.3144C35.3761 40.8987 35.2317 40.4991 34.9843 40.1642C34.7369 39.8293 34.3974 39.5737 34.0071 39.4287C33.0379 39.1101 32.2142 38.4563 31.6839 37.5847C31.1537 36.7131 30.9517 35.6809 31.1144 34.6738C31.2771 33.6666 31.7938 32.7506 32.5715 32.0902C33.3492 31.4299 34.3369 31.0687 35.3571 31.0715H39.3643C40.0516 31.0735 40.7292 30.91 41.3401 30.5951C41.951 30.2802 42.4771 29.8229 42.8742 29.262C43.2713 28.701 43.5277 28.0528 43.6217 27.3719C43.7156 26.6911 43.6445 25.9977 43.4143 25.3501C42.562 22.9436 41.0647 20.8177 39.0859 19.2045C37.1072 17.5913 34.7232 16.553 32.1943 16.203C29.6655 15.8531 27.0891 16.2048 24.7466 17.2199C22.4041 18.235 20.3857 19.8744 18.9118 21.959C17.438 24.0435 16.5654 26.4931 16.3894 29.04C16.2134 31.5869 16.7408 34.1331 17.914 36.4006C19.0871 38.6681 20.8609 40.5695 23.0415 41.8971C25.2221 43.2247 27.7256 43.9275 30.2786 43.9287C31.5393 43.9322 32.7944 43.7591 34.0071 43.4144C34.4526 43.2896 34.8383 43.0088 35.094 42.6233C35.3497 42.2378 35.4583 41.7733 35.4 41.3144Z" stroke="white" stroke-width="1.5" stroke-linecap="round" stroke-linejoin="round"/>
</g>
</g>
</g>
</g>
<defs>
<clipPath id="clip0_1_400">
<rect width="30" height="30" fill="white" transform="translate(15 15)"/>
</clipPath>
<clipPath id="clip1_1_400">
<rect width="30" height="30" fill="white" transform="translate(15 15)"/>
</clipPath>
<clipPath id="clip2_1_400">
<rect width="30" height="30" fill="white" transform="translate(15 15)"/>
</clipPath>
</defs>
</svg>
