<svg width="40" height="41" viewBox="0 0 40 41" fill="none" xmlns="http://www.w3.org/2000/svg">
<rect y="1.00781" width="40" height="40" rx="10" fill="#734BDF"/>
<path d="M24.8754 0.78125C26.2035 0 27.8832 1.13281 27.6488 2.69531L25.3441 17.8125C25.2269 18.3984 24.9144 18.8672 24.4066 19.1797C24.0941 19.3359 23.7816 19.4141 23.4691 19.4141C23.2348 19.4141 23.0004 19.375 22.766 19.2578L18.391 17.4609L16.6723 19.7656C15.6176 21.2109 13.3129 20.4688 13.3129 18.6328V15.3516L8.82069 13.5156C7.37538 12.9297 7.25819 10.9375 8.62538 10.1562L24.8754 0.78125ZM15.1879 18.6328L16.5941 16.7188L15.1879 16.1328V18.6328ZM23.4691 17.5391L25.8129 2.38281L9.56288 11.7578L13.7426 13.5156L22.0238 6.32812C22.5707 5.82031 23.3519 6.52344 22.9613 7.14844L17.4535 15.0391L23.4691 17.5391ZM30.8879 3.72781L30.4879 8.88781H29.3879L28.9879 3.72781H30.8879ZM34.5479 3.72781L34.1479 8.88781H33.0479L32.6479 3.72781H34.5479Z" fill="white"/>
<path d="M23.6697 13.7278L18.3497 28.0078H16.6297L21.9497 13.7278H23.6697ZM19.2684 33.7278L18.8684 38.8878H17.7684L17.3684 33.7278H19.2684ZM22.9284 33.7278L22.5284 38.8878H21.4284L21.0284 33.7278H22.9284Z" fill="white"/>
</svg>
