<svg width="50" height="50" viewBox="0 0 50 50" fill="none" xmlns="http://www.w3.org/2000/svg">
<rect width="50" height="50" rx="10" fill="#734BDF"/>
<g clip-path="url(#clip0_1_266)">
<g clip-path="url(#clip1_1_266)">
<g clip-path="url(#clip2_1_266)">
<mask id="mask0_1_266" style="mask-type:luminance" maskUnits="userSpaceOnUse" x="12" y="12" width="26" height="26">
<path d="M37.5 12.5H12.5V37.5H37.5V12.5Z" fill="white"/>
</mask>
<g mask="url(#mask0_1_266)">
<path d="M28.1428 35.7158C29.2425 36.4253 30.5529 36.7345 31.8538 36.5914C33.1546 36.4483 34.3665 35.8617 35.2857 34.9301L36.0892 34.1444C36.4415 33.7841 36.6388 33.3001 36.6388 32.7962C36.6388 32.2923 36.4415 31.8083 36.0892 31.448L32.6785 28.073C32.3212 27.7218 31.8402 27.525 31.3392 27.525C30.8382 27.525 30.3573 27.7218 30 28.073C29.6396 28.4253 29.1557 28.6225 28.6517 28.6225C28.1478 28.6225 27.6639 28.4253 27.3035 28.073L21.9464 22.7158C21.7677 22.5397 21.6258 22.3298 21.5289 22.0984C21.432 21.8669 21.3821 21.6185 21.3821 21.3676C21.3821 21.1167 21.432 20.8683 21.5289 20.6369C21.6258 20.4054 21.7677 20.1955 21.9464 20.0194C22.2975 19.6621 22.4943 19.1811 22.4943 18.6801C22.4943 18.1791 22.2975 17.6982 21.9464 17.3408L18.5535 13.948C18.1932 13.5957 17.7093 13.3984 17.2053 13.3984C16.7014 13.3984 16.2174 13.5957 15.8571 13.948L15.0714 14.7516C14.1399 15.6707 13.5532 16.8826 13.4101 18.1835C13.267 19.4843 13.5762 20.7947 14.2857 21.8944C17.9822 27.3421 22.6856 32.0334 28.1428 35.7158Z" stroke="white" stroke-width="1.5" stroke-linecap="round" stroke-linejoin="round"/>
</g>
</g>
</g>
</g>
<defs>
<clipPath id="clip0_1_266">
<rect width="25" height="25" fill="white" transform="translate(12.5 12.5)"/>
</clipPath>
<clipPath id="clip1_1_266">
<rect width="25" height="25" fill="white" transform="translate(12.5 12.5)"/>
</clipPath>
<clipPath id="clip2_1_266">
<rect width="25" height="25" fill="white" transform="translate(12.5 12.5)"/>
</clipPath>
</defs>
</svg>
