<svg width="24" height="24" viewBox="0 0 24 24" fill="none" xmlns="http://www.w3.org/2000/svg">
<g clip-path="url(#clip0_1_336)">
<mask id="mask0_1_336" style="mask-type:luminance" maskUnits="userSpaceOnUse" x="0" y="0" width="24" height="24">
<path d="M24 0H0V24H24V0Z" fill="white"/>
</mask>
<g mask="url(#mask0_1_336)">
<path d="M21.4286 0.857178H2.57141C1.62463 0.857178 0.857117 1.62469 0.857117 2.57147V21.4286C0.857117 22.3754 1.62463 23.1429 2.57141 23.1429H21.4286C22.3753 23.1429 23.1428 22.3754 23.1428 21.4286V2.57147C23.1428 1.62469 22.3753 0.857178 21.4286 0.857178Z" stroke="white" stroke-width="1.44" stroke-linecap="round" stroke-linejoin="round"/>
<path d="M12 19.7143C15.3137 19.7143 18 17.028 18 13.7143C18 10.4007 15.3137 7.71436 12 7.71436C8.68629 7.71436 6 10.4007 6 13.7143C6 17.028 8.68629 19.7143 12 19.7143Z" stroke="white" stroke-width="1.44" stroke-linecap="round" stroke-linejoin="round"/>
<path d="M0.857117 6H5.99998" stroke="white" stroke-width="1.44" stroke-linecap="round" stroke-linejoin="round"/>
<path d="M18 6H23.1428" stroke="white" stroke-width="1.44" stroke-linecap="round" stroke-linejoin="round"/>
<path d="M12 13.6628V19.6628" stroke="white" stroke-width="1.44" stroke-linecap="round" stroke-linejoin="round"/>
<path d="M6.85712 10.6287L12 13.6629" stroke="white" stroke-width="1.44" stroke-linecap="round" stroke-linejoin="round"/>
<path d="M17.1428 10.6287L12 13.6629" stroke="white" stroke-width="1.44" stroke-linecap="round" stroke-linejoin="round"/>
</g>
</g>
<defs>
<clipPath id="clip0_1_336">
<rect width="24" height="24" fill="white"/>
</clipPath>
</defs>
</svg>
