<svg width="24" height="24" viewBox="0 0 24 24" fill="none" xmlns="http://www.w3.org/2000/svg">
<g clip-path="url(#clip0_1_360)">
<g clip-path="url(#clip1_1_360)">
<mask id="mask0_1_360" style="mask-type:luminance" maskUnits="userSpaceOnUse" x="0" y="0" width="24" height="24">
<path d="M24 0H0V24H24V0Z" fill="white"/>
</mask>
<g mask="url(#mask0_1_360)">
<path d="M7.97139 3.83984L7.30282 3.99413C7.36336 4.25764 7.37094 4.53054 7.32508 4.79699C7.27922 5.06345 7.18086 5.31813 7.03571 5.54622C6.89055 5.77433 6.7015 5.97129 6.47955 6.12569C6.25759 6.28008 6.00716 6.38881 5.74282 6.44556C5.20678 6.55831 4.6479 6.45628 4.18629 6.16136C3.72469 5.86644 3.39721 5.40221 3.27425 4.86842L1.9371 5.1427C1.75373 5.18271 1.58037 5.25948 1.4275 5.36837C1.27463 5.47726 1.14543 5.61602 1.04769 5.77624C0.949947 5.93647 0.885704 6.11485 0.858841 6.3006C0.831977 6.48636 0.843049 6.67564 0.891389 6.85699C0.891389 6.85699 1.50853 9.71984 2.22853 12.9427" stroke="white" stroke-width="1.44" stroke-linecap="round" stroke-linejoin="round"/>
<path d="M20.8286 3.82271C20.7261 4.11136 20.5662 4.37622 20.3583 4.60122C20.1506 4.82623 19.8993 5.0067 19.6196 5.13171C19.34 5.25672 19.0378 5.32365 18.7316 5.32847C18.4254 5.33329 18.1213 5.27588 17.8379 5.15973C17.5545 5.04357 17.2977 4.8711 17.0828 4.65274C16.8681 4.43437 16.6999 4.17468 16.5883 3.8894C16.4769 3.60411 16.4245 3.29916 16.4343 2.99303C16.4442 2.6869 16.5161 2.38595 16.6457 2.10843L15.2572 1.457C14.8864 1.30248 14.4696 1.30042 14.0973 1.45126C13.725 1.60211 13.4272 1.89369 13.2686 2.26271L7.50859 15.8227L6.7543 17.537C6.59978 17.9078 6.59772 18.3246 6.74856 18.6969C6.8994 19.0692 7.19098 19.367 7.56002 19.5255L14.52 22.4913C14.8908 22.6458 15.3076 22.6479 15.6799 22.497C16.0522 22.3462 16.3499 22.0546 16.5086 21.6855L23.0229 6.35986C23.1665 6.00347 23.1704 5.60602 23.0338 5.2469C22.897 4.88778 22.63 4.59346 22.2857 4.42271L20.8286 3.82271Z" stroke="white" stroke-width="1.44" stroke-linecap="round" stroke-linejoin="round"/>
</g>
</g>
</g>
<defs>
<clipPath id="clip0_1_360">
<rect width="24" height="24" fill="white"/>
</clipPath>
<clipPath id="clip1_1_360">
<rect width="24" height="24" fill="white"/>
</clipPath>
</defs>
</svg>
